<svg width="113" height="32" viewBox="0 0 113 32" fill="none" xmlns="http://www.w3.org/2000/svg">
<path d="M9.91469 15.7C9.23469 16.0333 8.46135 16.3 7.59469 16.5C8.46135 16.7 9.23469 16.9667 9.91469 17.3L15.5947 20.38C15.9547 20.5533 16.208 20.7733 16.3547 21.04C16.5147 21.2933 16.5947 21.5733 16.5947 21.88V26.18L0.394688 17.72V15.3L16.5947 6.82V11.12C16.5947 11.4267 16.5147 11.7133 16.3547 11.98C16.208 12.2333 15.9547 12.4533 15.5947 12.64L9.91469 15.7ZM27.6578 29.76C27.5111 30.12 27.3178 30.44 27.0778 30.72C26.8511 31 26.5911 31.2333 26.2978 31.42C26.0178 31.6067 25.7111 31.7467 25.3778 31.84C25.0578 31.9333 24.7378 31.98 24.4178 31.98H21.7778L33.1378 2.16C33.4045 1.48 33.8111 0.959999 34.3578 0.599999C34.9045 0.239998 35.5378 0.059998 36.2578 0.059998H38.8978L27.6578 29.76ZM61.6944 22.46C61.8544 22.46 62.0144 22.4933 62.1744 22.56C62.3344 22.6133 62.4877 22.7133 62.6344 22.86L65.3144 25.68C64.141 27.2133 62.6677 28.3733 60.8944 29.16C59.1344 29.9333 57.0477 30.32 54.6344 30.32C52.421 30.32 50.4344 29.9467 48.6744 29.2C46.9277 28.44 45.441 27.4 44.2144 26.08C43.001 24.7467 42.0677 23.1733 41.4144 21.36C40.761 19.5333 40.4344 17.5533 40.4344 15.42C40.4344 13.2467 40.7877 11.2533 41.4944 9.44C42.201 7.61333 43.1944 6.04 44.4744 4.72C45.7544 3.4 47.2877 2.37333 49.0744 1.64C50.861 0.906665 52.8277 0.539999 54.9744 0.539999C56.0677 0.539999 57.0944 0.639999 58.0544 0.839999C59.0277 1.02666 59.9344 1.29333 60.7744 1.64C61.6144 1.97333 62.3877 2.38 63.0944 2.86C63.801 3.34 64.4277 3.86 64.9744 4.42L62.6944 7.48C62.5477 7.66666 62.3744 7.84 62.1744 8C61.9744 8.14667 61.6944 8.22 61.3344 8.22C61.0944 8.22 60.8677 8.16667 60.6544 8.06C60.441 7.95333 60.2144 7.82667 59.9744 7.68C59.7344 7.52 59.4677 7.35333 59.1744 7.18C58.8944 6.99333 58.5544 6.82667 58.1544 6.68C57.7677 6.52 57.3077 6.38666 56.7744 6.28C56.2544 6.17333 55.641 6.12 54.9344 6.12C53.8144 6.12 52.7877 6.32667 51.8544 6.74C50.9344 7.15333 50.1344 7.76 49.4544 8.56C48.7877 9.34667 48.2677 10.32 47.8944 11.48C47.5344 12.6267 47.3544 13.94 47.3544 15.42C47.3544 16.9133 47.5544 18.24 47.9544 19.4C48.3677 20.56 48.921 21.54 49.6144 22.34C50.321 23.1267 51.141 23.7267 52.0744 24.14C53.0077 24.5533 54.0077 24.76 55.0744 24.76C55.6877 24.76 56.2477 24.7333 56.7544 24.68C57.261 24.6133 57.7344 24.5133 58.1744 24.38C58.6144 24.2333 59.0277 24.0467 59.4144 23.82C59.801 23.58 60.1944 23.28 60.5944 22.92C60.7544 22.7867 60.9277 22.68 61.1144 22.6C61.301 22.5067 61.4944 22.46 61.6944 22.46ZM79.7853 24.9C80.6786 24.9 81.4053 24.7867 81.9653 24.56C82.5386 24.3333 82.9853 24.04 83.3053 23.68C83.6253 23.32 83.8453 22.9133 83.9653 22.46C84.0853 22.0067 84.1453 21.5467 84.1453 21.08C84.1453 20.5467 84.072 20.0667 83.9253 19.64C83.792 19.2133 83.552 18.8533 83.2053 18.56C82.872 18.2667 82.4253 18.04 81.8653 17.88C81.3053 17.72 80.5986 17.64 79.7453 17.64H75.0253V24.9H79.7853ZM75.0253 5.92V13.12H78.5453C79.292 13.12 79.9653 13.0667 80.5653 12.96C81.1653 12.8533 81.672 12.6667 82.0853 12.4C82.512 12.1333 82.832 11.7667 83.0453 11.3C83.272 10.8333 83.3853 10.2467 83.3853 9.54C83.3853 8.84667 83.2986 8.27333 83.1253 7.82C82.952 7.35333 82.6853 6.98 82.3253 6.7C81.9653 6.42 81.5053 6.22 80.9453 6.1C80.3986 5.98 79.7453 5.92 78.9853 5.92H75.0253ZM78.9853 0.86C80.9986 0.86 82.712 1.04667 84.1253 1.42C85.5386 1.79333 86.692 2.32 87.5853 3C88.4786 3.68 89.1253 4.50667 89.5253 5.48C89.9386 6.45333 90.1453 7.54 90.1453 8.74C90.1453 9.39333 90.052 10.0267 89.8653 10.64C89.6786 11.24 89.3853 11.8067 88.9853 12.34C88.5853 12.86 88.072 13.34 87.4453 13.78C86.8186 14.22 86.0653 14.6 85.1853 14.92C87.1053 15.3867 88.5253 16.14 89.4453 17.18C90.3653 18.22 90.8253 19.5667 90.8253 21.22C90.8253 22.46 90.5853 23.6133 90.1053 24.68C89.6253 25.7467 88.9186 26.68 87.9853 27.48C87.0653 28.2667 85.9253 28.8867 84.5653 29.34C83.2053 29.78 81.652 30 79.9053 30H68.2653V0.86H78.9853ZM112.602 15.3V17.72L96.4022 26.18V21.88C96.4022 21.5733 96.4755 21.2933 96.6222 21.04C96.7822 20.7733 97.0422 20.5533 97.4022 20.38L103.082 17.3C103.762 16.9667 104.536 16.7 105.402 16.5C104.536 16.3 103.762 16.0333 103.082 15.7L97.4022 12.64C97.0422 12.4533 96.7822 12.2333 96.6222 11.98C96.4755 11.7133 96.4022 11.4267 96.4022 11.12V6.82L112.602 15.3Z" fill="black"/>
</svg>
